<svg xmlns="http://www.w3.org/2000/svg" xmlns:xlink="http://www.w3.org/1999/xlink" viewBox="0 0 1366 768"><defs><style>.cls-1{fill:url(#Безымянный_градиент_3);}.cls-2{fill:url(#Безымянный_градиент_31);}.cls-3{fill:#fff;}.cls-4{fill:url(#Безымянный_градиент_4);}.cls-5{fill:url(#Безымянный_градиент_3-2);}.cls-6{fill:url(#Безымянный_градиент_31-2);}.cls-7{fill:#ff1d25;}</style><linearGradient id="Безымянный_градиент_3" x1="311.5" y1="342" x2="551.5" y2="342" gradientUnits="userSpaceOnUse"><stop offset="0" stop-color="#fff"/><stop offset="1"/></linearGradient><linearGradient id="Безымянный_градиент_31" x1="550.5" x2="789.5" xlink:href="#Безымянный_градиент_3"/><linearGradient id="Безымянный_градиент_4" x1="317" y1="318" x2="784" y2="318" gradientUnits="userSpaceOnUse"><stop offset="0" stop-color="#999"/><stop offset="0.5" stop-color="#fff"/><stop offset="1" stop-color="gray"/></linearGradient><linearGradient id="Безымянный_градиент_3-2" y1="250.18" x2="550.5" y2="250.18" xlink:href="#Безымянный_градиент_3"/><linearGradient id="Безымянный_градиент_31-2" x1="550.5" y1="246.38" x2="789.5" y2="246.38" xlink:href="#Безымянный_градиент_3"/></defs><title>Монтажная область 1</title><g id="рога"><polygon class="cls-1" points="311.5 155.5 550.5 528.5 551.5 483.5 311.5 155.5"/><path class="cls-2" d="M688.62,293.94A69.85,69.85,0,0,0,700,295a69.85,69.85,0,0,1-11.38-1.06L550.5,483.5v45l239-373Z"/><polygon class="cls-3" points="311 155 550.5 464 550.5 500 311 155"/><path class="cls-3" d="M550.5,464v36L693,294.56c-3.26-.38-6.47-1-10-1.56,3.55.59,6.76,1.18,10,1.56L789.5,155.5Z"/></g><g id="бэт3"><path class="cls-3" d="M602,255c-44,0-51.5-18.5-51.5-18.5S543,254,499,254H317c19,6,25,59.67,28,69,9,28.38,31,38,60.13,40.57C544.72,375.91,550.5,399.5,550.5,399.5s5.78-22.59,145.37-34.93C725,362,747,352.38,756,324c3-9.33,9-63,28-69Zm144.46,56.45c-.71,3.61-1.51,7.7-1.9,8.93-6.45,20.35-20.86,29.69-49.74,32.24-74,6.53-122.9,16.93-144.19,30.46-21.4-14.05-71.09-25-144.45-31.46-28.88-2.55-43.29-11.89-49.74-32.24-.39-1.23-1.19-5.32-1.9-8.93-3.13-16-6.69-31.92-12.2-44.45H499c26.62,0,42.19-6,51.17-12.16C559.06,260.45,574.74,267,602,267H758.66C753.15,279.53,749.59,295.46,746.46,311.45Z"/></g><g id="бэт"><path class="cls-4" d="M602,255c-44,0-51.5-18.5-51.5-18.5S543,254,499,254H317c19,6,25,59.67,28,69,9,28.38,31,38,60.13,40.57C544.72,375.91,550.5,399.5,550.5,399.5s5.78-22.59,145.37-34.93C725,362,747,352.38,756,324c3-9.33,9-63,28-69Zm146.42,56.83c-.75,3.84-1.53,7.82-1.95,9.15-6.74,21.25-21.65,31-51.47,33.63-90.27,8-128.58,20.39-144.26,30.86-15.4-10.88-53.57-23.8-144.73-31.86C376.18,351,361.27,341.23,354.53,320c-.42-1.33-1.2-5.31-1.95-9.15-3.36-17.11-7.18-34.15-13.35-46.83H499c27.62,0,43-6.46,51.35-12.7,8.36,6.62,23.8,13.7,51.65,13.7H761.77C755.6,277.68,751.78,294.72,748.42,311.83Z"/></g><g id="рога_копия_" data-name="рога (копия)"><path class="cls-5" d="M446.05,340.16,311.5,155.5,432.83,344.85A70.89,70.89,0,0,1,446.05,340.16Z"/><path class="cls-6" d="M661.24,333.89a98.07,98.07,0,0,0,11.8,3.37L789.5,155.5,688.62,293.94l-28.74,39.45Z"/><path class="cls-3" d="M453.39,338.71,311,155,440.63,341.73A74.67,74.67,0,0,1,453.39,338.71Z"/><path class="cls-3" d="M653.48,331.08c2.58.9,5.15,1.86,7.76,2.81,1.21.45,2.43.84,3.65,1.22L693,294.56,789.5,155.5Z"/></g><g id="текст"><path class="cls-3" d="M487.06,272.54v7.28h-9.61v29.09H461.26V279.82h-9.57v-7.28Z"/><path class="cls-3" d="M506.09,279.1l-.27,2.63a14.71,14.71,0,0,1,4.58-2.38,17.88,17.88,0,0,1,5.46-.79,15.67,15.67,0,0,1,6.25,1.14c1.75.75,2.85,1.62,3.28,2.61a13.57,13.57,0,0,1,.66,5V299.9a14.43,14.43,0,0,1-.83,5.78,5.94,5.94,0,0,1-3.38,2.74,16.66,16.66,0,0,1-6.17,1,17.6,17.6,0,0,1-5.35-.79,15.08,15.08,0,0,1-4.5-2.34v6.83H490.29v-34Zm4.42,8.67a9.15,9.15,0,0,0-.34-3.35c-.23-.39-.87-.58-1.92-.58s-1.69.22-2,.67a7.18,7.18,0,0,0-.45,3.26v12.35a7.29,7.29,0,0,0,.47,3.37c.3.45,1,.68,2,.68s1.63-.21,1.87-.62a7.47,7.47,0,0,0,.36-3Z"/><path class="cls-3" d="M545,290.65H530.47v-2a9,9,0,0,1,1.36-5.34q1.36-1.87,5.48-3.31A33,33,0,0,1,548,278.56q7.88,0,11.88,1.63t4.81,4q.79,2.37.8,9.76v15H550.38v-2.66a8.68,8.68,0,0,1-3.67,2.4,16.14,16.14,0,0,1-5.36.8,20.31,20.31,0,0,1-7.48-1.34q-3.4-1.33-3.4-5.85v-2.45q0-3.35,1.81-4.56c1.2-.81,4.19-1.75,9-2.83,5.1-1.17,7.83-1.95,8.19-2.36a3.93,3.93,0,0,0,.54-2.47,5.12,5.12,0,0,0-.6-3,2.44,2.44,0,0,0-2-.71c-1,0-1.7.2-2,.6a7.34,7.34,0,0,0-.38,3.08Zm4.92,4.08q-3.74,1.61-4.32,2.68a6.48,6.48,0,0,0-.6,3.1,5.48,5.48,0,0,0,.52,3,3.56,3.56,0,0,0,4,.15,5.27,5.27,0,0,0,.44-2.77Z"/><path class="cls-3" d="M607.29,308.91H591.83v-11h-5.58v11H570.84V279.1h15.41v10.71h5.58V279.1h15.46Z"/><path class="cls-3" d="M647.15,290.35H632.51v-3.43a4.24,4.24,0,0,0-.5-2.44,2.23,2.23,0,0,0-1.85-.64,2.3,2.3,0,0,0-1.81.56,4.53,4.53,0,0,0-.46,2.52V301a3.57,3.57,0,0,0,.69,2.39,2.57,2.57,0,0,0,2,.8,2.43,2.43,0,0,0,2.14-.83,6.22,6.22,0,0,0,.55-3.15v-3.55h13.84a27.16,27.16,0,0,1-.44,5.36,7.3,7.3,0,0,1-2.57,3.66,14.38,14.38,0,0,1-5.67,2.83,40.7,40.7,0,0,1-19.07-.36,10.2,10.2,0,0,1-5.44-3.68,11.93,11.93,0,0,1-1.6-6.73v-8.47a10.23,10.23,0,0,1,1.31-5.72q1.3-1.93,5.57-3.45a36.32,36.32,0,0,1,20.76,0q4.31,1.5,5.73,3.79A12.33,12.33,0,0,1,647.15,290.35Z"/><path class="cls-7" d="M532.73,330.24h-17v-3.05c0-1.42-.22-2.32-.66-2.71a3.2,3.2,0,0,0-2.17-.59,3.59,3.59,0,0,0-2.5.79,3.13,3.13,0,0,0-.85,2.39,4.44,4.44,0,0,0,1,3.1c.6.69,2.33,1.53,5.17,2.51q12.21,4.24,15.39,6.95t3.17,8.76q0,4.39-1.76,6.48t-6.8,3.49A43.76,43.76,0,0,1,514,359.77a42.06,42.06,0,0,1-12.53-1.63c-3.47-1.08-5.73-2.46-6.81-4.13a13.3,13.3,0,0,1-1.6-7.14v-2.69h17v5q0,2.31.72,3a3.74,3.74,0,0,0,2.54.66A3.85,3.85,0,0,0,516,352a3.24,3.24,0,0,0,.89-2.48c0-2.42-.57-4-1.7-4.75a60,60,0,0,0-8.56-3.73,95.54,95.54,0,0,1-9-3.84,10.27,10.27,0,0,1-3.67-3.3,9.26,9.26,0,0,1-1.46-5.38q0-4.73,2.07-6.91c1.37-1.45,3.6-2.59,6.67-3.41a43.62,43.62,0,0,1,11.12-1.23,47.42,47.42,0,0,1,12.15,1.34c3.35.9,5.56,2,6.65,3.39s1.63,3.68,1.63,6.95Z"/><path class="cls-7" d="M557.55,317.8v5.36H539.47V317.8Zm0,7.41v33.7H539.47v-33.7Z"/><path class="cls-7" d="M564.37,317.8h13.69q13.26,0,17.93.71a17.59,17.59,0,0,1,7.1,2.34,7,7,0,0,1,3,3.61,32.58,32.58,0,0,1,.61,7.84v14.39q0,5.54-.9,7.4a6.2,6.2,0,0,1-3.1,2.92,18.07,18.07,0,0,1-5.48,1.48,83.84,83.84,0,0,1-9.82.42H564.37Zm18.3,7v27c2.63,0,4.26-.31,4.87-.92s.91-2.3.91-5v-16a12.27,12.27,0,0,0-.31-3.58,2.06,2.06,0,0,0-1.39-1.16A15,15,0,0,0,582.67,324.83Z"/></g></svg>